<svg xmlns="http://www.w3.org/2000/svg" width="62.682" height="57.232" viewBox="0 0 62.682 57.232">
  <g id="Group_71500" data-name="Group 71500" transform="translate(-157 -918.096)">
    <path id="add-a-photo" d="M8.176,9.676V1.5h5.451V9.676H21.8v5.451H13.627V23.3H8.176V15.127H0V9.676Zm8.176,16.352V17.852h8.176V9.676H43.605l4.987,5.451h8.639a5.467,5.467,0,0,1,5.451,5.451v32.7a5.467,5.467,0,0,1-5.451,5.451H13.627a5.467,5.467,0,0,1-5.451-5.451V26.028ZM35.429,50.556A13.627,13.627,0,1,0,21.8,36.929,13.632,13.632,0,0,0,35.429,50.556ZM26.708,36.929a8.721,8.721,0,1,0,8.721-8.721A8.712,8.712,0,0,0,26.708,36.929Z" transform="translate(157 916.596)" fill="#09f"/>
  </g>
</svg>
