<svg xmlns="http://www.w3.org/2000/svg" width="43.888" height="40.072" viewBox="0 0 43.888 40.072">
  <path id="add-a-photo" d="M5.724,7.224V1.5H9.541V7.224h5.724v3.816H9.541v5.724H5.724V11.041H0V7.224Zm5.724,11.449V12.949h5.724V7.224H30.531l3.492,3.816h6.049a3.828,3.828,0,0,1,3.816,3.816v22.9a3.828,3.828,0,0,1-3.816,3.816H9.541a3.828,3.828,0,0,1-3.816-3.816V18.673ZM24.806,35.847a9.541,9.541,0,1,0-9.541-9.541A9.544,9.544,0,0,0,24.806,35.847ZM18.7,26.306A6.106,6.106,0,1,0,24.806,20.2,6.1,6.1,0,0,0,18.7,26.306Z" transform="translate(0 -1.5)" fill="#09f" opacity="0.92"/>
</svg>
