<svg xmlns="http://www.w3.org/2000/svg" width="29.017" height="29.152" viewBox="0 0 29.017 29.152">
  <path id="microsoftacademic" d="M23.162,29.142C18.282,25.539,10.171,19.4.084,18.058L4.4,13.841a41.266,41.266,0,0,1,18.766,15.3ZM.6,22.4,3.964,19.7c9.819,2.414,18.147,9.449,18.147,9.449C18.6,27.172,8.656,22.3.6,22.4Zm3.089-9.768,11.236-10,2.42,1.4L11.9,10.215C17.762,15.053,24.273,20.2,23.69,28.59,17.913,20.4,11.1,14.552,3.689,12.626Zm9.6-2.588L21.923,0c4.6,3.765,7.179,9.612,7.179,12.77-.376,4.035-4.322,13.786-4.686,14.863-.274-2.438,1.742-6.753-11.123-17.594Z" transform="translate(-0.084)" fill="#5b5b5b"/>
</svg>
