<svg xmlns="http://www.w3.org/2000/svg" xmlns:xlink="http://www.w3.org/1999/xlink" width="30" height="30" viewBox="0 0 30 30">
  <defs>
    <clipPath id="clip-path">
      <rect id="Rectangle_17641" data-name="Rectangle 17641" width="30" height="30" fill="none"/>
    </clipPath>
  </defs>
  <g id="Group_71441" data-name="Group 71441" transform="translate(-162 -621)">
    <g id="Group_70491" data-name="Group 70491" transform="translate(162.22 621.22)">
      <g id="Group_8980" data-name="Group 8980" transform="translate(-0.22 -0.22)" clip-path="url(#clip-path)">
        <path id="Path_19453" data-name="Path 19453" d="M53.062,34.472a12.047,12.047,0,0,0-.32-2.982H38.507V36.9h8.355a7.093,7.093,0,0,1-3.1,4.733l-.028.181,4.5,3.355.312.03a14,14,0,0,0,4.515-10.73" transform="translate(-23.132 -19.148)" fill="#3283fc"/>
        <path id="Path_19454" data-name="Path 19454" d="M17.651,57.825a14.785,14.785,0,0,0,10.04-3.533l-4.784-3.566a9.227,9.227,0,0,1-5.256,1.459,9.1,9.1,0,0,1-8.625-6.062l-.178.015-4.68,3.485-.061.164a15.221,15.221,0,0,0,13.544,8.039" transform="translate(-2.277 -28.237)" fill="#00ac47"/>
        <path id="Path_19455" data-name="Path 19455" d="M6.536,30.538a8.673,8.673,0,0,1-.505-2.885,9.11,9.11,0,0,1,.488-2.885l-.008-.194L1.772,21.034l-.155.071a14.067,14.067,0,0,0,0,13.1l4.919-3.663" transform="translate(0.213 -12.653)" fill="#fb0"/>
        <path id="Path_19456" data-name="Path 19456" d="M17.651,5.641a8.578,8.578,0,0,1,5.862,2.172l4.279-4.02A14.882,14.882,0,0,0,17.651,0,15.22,15.22,0,0,0,4.107,8.039l4.9,3.663a9.136,9.136,0,0,1,8.642-6.062" transform="translate(-2.277 0.412)" fill="#fe2c25"/>
      </g>
    </g>
  </g>
</svg>
