<svg xmlns="http://www.w3.org/2000/svg" width="289.811" height="36.889" viewBox="0 0 289.811 36.889">
  <g id="Group_71172" data-name="Group 71172" transform="translate(-37.312 -1030)">
    <g id="Group_71167" data-name="Group 71167" transform="translate(-10.189 -0.556)">
      <path id="Path_75755" data-name="Path 75755" d="M18.444,0h.922a18.444,18.444,0,1,1,0,36.889h-.922A18.444,18.444,0,0,1,18.444,0Z" transform="translate(173.501 1030.556)" fill="#f5f5f5"/>
      <path id="instagram" d="M11.479,3c-2.3,0-2.591.01-3.5.051a6.24,6.24,0,0,0-2.058.395,4.333,4.333,0,0,0-2.48,2.48A6.252,6.252,0,0,0,3.05,7.984c-.041.9-.05,1.193-.05,3.5s.01,2.591.051,3.5a6.24,6.24,0,0,0,.395,2.058,4.332,4.332,0,0,0,2.48,2.48,6.252,6.252,0,0,0,2.058.395c.9.041,1.193.051,3.5.051s2.591-.01,3.5-.051a6.24,6.24,0,0,0,2.058-.395,4.332,4.332,0,0,0,2.48-2.48,6.252,6.252,0,0,0,.395-2.058c.041-.9.051-1.193.051-3.5s-.01-2.591-.051-3.5a6.24,6.24,0,0,0-.395-2.058,4.332,4.332,0,0,0-2.48-2.48,6.252,6.252,0,0,0-2.058-.395c-.905-.04-1.193-.05-3.5-.05m0,1.528c2.264,0,2.532.008,3.426.049a4.711,4.711,0,0,1,1.575.292A2.807,2.807,0,0,1,18.09,6.478a4.706,4.706,0,0,1,.292,1.574c.041.895.049,1.162.049,3.427s-.008,2.532-.049,3.426a4.741,4.741,0,0,1-.292,1.575A2.807,2.807,0,0,1,16.48,18.09a4.706,4.706,0,0,1-1.574.292c-.894.041-1.162.049-3.427.049s-2.533-.008-3.426-.049a4.741,4.741,0,0,1-1.575-.292A2.807,2.807,0,0,1,4.869,16.48a4.676,4.676,0,0,1-.292-1.574c-.041-.895-.049-1.162-.049-3.427s.008-2.532.049-3.426a4.711,4.711,0,0,1,.292-1.575A2.807,2.807,0,0,1,6.478,4.869a4.676,4.676,0,0,1,1.574-.292c.895-.041,1.162-.049,3.427-.049m0,9.778a2.826,2.826,0,1,1,2.826-2.826,2.826,2.826,0,0,1-2.826,2.826m0-7.18a4.354,4.354,0,1,0,4.354,4.354,4.354,4.354,0,0,0-4.354-4.354m5.544-.172a1.018,1.018,0,1,1-1.018-1.018,1.018,1.018,0,0,1,1.018,1.018" transform="translate(181 1038.014)" fill="#925403" fill-rule="evenodd"/>
    </g>
    <g id="Group_71169" data-name="Group 71169" transform="translate(-28 -0.556)">
      <path id="Path_75756" data-name="Path 75756" d="M18.444,0h.922a18.444,18.444,0,1,1,0,36.889h-.922A18.444,18.444,0,0,1,18.444,0Z" transform="translate(128.312 1030.556)" fill="#f5f5f5"/>
      <path id="twitter-bird" d="M19.866,1.912a8.253,8.253,0,0,1-2.036,2.1q.012.233.012.528a11.707,11.707,0,0,1-1.932,6.409,12.382,12.382,0,0,1-2.333,2.654,10.4,10.4,0,0,1-3.255,1.844,11.888,11.888,0,0,1-4.074.688A11.344,11.344,0,0,1,0,14.307a8.813,8.813,0,0,0,.972.056,7.991,7.991,0,0,0,5.062-1.746A3.954,3.954,0,0,1,3.668,11.8,4.006,4.006,0,0,1,2.229,9.787a4.074,4.074,0,0,0,1.84-.068,3.972,3.972,0,0,1-2.34-1.4A3.944,3.944,0,0,1,.8,5.724v-.05a4.022,4.022,0,0,0,1.846.51A4.049,4.049,0,0,1,1.323,4.731,3.977,3.977,0,0,1,.833,2.793,4,4,0,0,1,1.385.745,11.6,11.6,0,0,0,5.1,3.753,11.326,11.326,0,0,0,9.784,5a3.985,3.985,0,0,1-.107-.928A3.926,3.926,0,0,1,10.871,1.2a4.077,4.077,0,0,1,5.857.091A8.118,8.118,0,0,0,19.315.3a3.94,3.94,0,0,1-1.79,2.255,8.145,8.145,0,0,0,2.341-.64Z" transform="translate(137.146 1041.014)" fill="#3da5e1"/>
    </g>
    <g id="Group_71171" data-name="Group 71171" transform="translate(7.623 -0.556)">
      <g id="Group_71170" data-name="Group 71170">
        <path id="Path_75754" data-name="Path 75754" d="M18.444,0h.922a18.444,18.444,0,1,1,0,36.889h-.922A18.444,18.444,0,0,1,18.444,0Z" transform="translate(218.689 1030.556)" fill="#f5f5f5"/>
        <path id="Path_19765" data-name="Path 19765" d="M13.728,3.375A5.718,5.718,0,0,0,7.875,8.943c0,3.536,3.9,9.139,5.335,11.074a.641.641,0,0,0,1.036,0c1.432-1.935,5.334-7.536,5.334-11.074A5.718,5.718,0,0,0,13.728,3.375Z" transform="translate(223.877 1036.964)" fill="none" stroke="#212121" stroke-linecap="round" stroke-linejoin="round" stroke-width="1"/>
      </g>
      <path id="Path_19766" data-name="Path 19766" d="M18.527,12.076a1.951,1.951,0,1,1-1.951-1.951A1.951,1.951,0,0,1,18.527,12.076Z" transform="translate(221.029 1034.115)" fill="none" stroke="#212121" stroke-linecap="round" stroke-linejoin="round" stroke-width="1"/>
    </g>
    <g id="Group_71166" data-name="Group 71166" transform="translate(25.435 -0.556)">
      <path id="Path_75753" data-name="Path 75753" d="M18.444,0h.922a18.444,18.444,0,1,1,0,36.889h-.922A18.444,18.444,0,0,1,18.444,0Z" transform="translate(263.877 1030.556)" fill="#f5f5f5"/>
      <path id="delete-link" d="M8.593,1.91H4.774a2.864,2.864,0,0,0,0,5.729H8.593v1.91H4.774A4.774,4.774,0,0,1,4.774,0H8.593ZM10.5,7.639h3.819a2.864,2.864,0,0,0,0-5.729H10.5V0h3.819a4.774,4.774,0,1,1,0,9.548H10.5Zm0-3.819h1.91a.955.955,0,0,1,0,1.91H10.5Zm-3.819,0h1.91v1.91H6.684a.955.955,0,0,1,0-1.91Z" transform="matrix(0.799, -0.602, 0.602, 0.799, 272.284, 1051.831)" fill="#03f"/>
    </g>
    <g id="Group_71168" data-name="Group 71168" transform="translate(-40 -1.453)">
      <path id="Path_76251" data-name="Path 76251" d="M18.444,0h.922a18.444,18.444,0,1,1,0,36.889h-.922A18.444,18.444,0,0,1,18.444,0Z" transform="translate(77.312 1031.453)" fill="#f5f5f5"/>
      <path id="facebook" d="M2.337,18.834V10H0V6.815H2.337V4.1C2.337,1.961,3.717,0,6.9,0a19.312,19.312,0,0,1,2.24.123L9.063,3.1s-.971-.009-2.031-.009c-1.147,0-1.331.528-1.331,1.406V6.815H9.154L9,10H5.7v8.837H2.337" transform="translate(91.64 1039.666)" fill="#0748cb"/>
    </g>
  </g>
</svg>
