<svg id="home-solid" xmlns="http://www.w3.org/2000/svg" width="28.925" height="28.975" viewBox="0 0 28.925 28.975">
  <path id="Path_13" data-name="Path 13" d="M30.083,17.4a.906.906,0,0,1-.643-.263L16.5,4.184,3.554,17.135a.906.906,0,0,1-1.277-1.277L15.863,2.273a.906.906,0,0,1,1.277,0L30.726,15.858a.906.906,0,0,1-.643,1.54Z" transform="translate(-2.06 -2.009)" fill="#0093f5"/>
  <path id="Path_14" data-name="Path 14" d="M16.869,7.79,6,18.695V29.717a1.811,1.811,0,0,0,1.811,1.811h6.34V22.472h5.434v9.057h6.34a1.811,1.811,0,0,0,1.811-1.811V18.631Z" transform="translate(-2.431 -2.554)" fill="#0093f5"/>
</svg>
