<svg id="Group_9565" data-name="Group 9565" xmlns="http://www.w3.org/2000/svg" width="29.314" height="25.65" viewBox="0 0 29.314 25.65">
  <g id="collection-fill">
    <path id="Path_19515" data-name="Path 19515" d="M0,25.7a2.748,2.748,0,0,0,2.748,2.748H26.566A2.748,2.748,0,0,0,29.314,25.7V12.873a2.748,2.748,0,0,0-2.748-2.748H2.748A2.748,2.748,0,0,0,0,12.873Z" transform="translate(0 -2.796)" fill="#5b5b5b"/>
    <path id="Path_19516" data-name="Path 19516" d="M4.5,5.705a.916.916,0,0,0,.916.916H25.57a.916.916,0,0,0,0-1.832H5.416A.916.916,0,0,0,4.5,5.705ZM8.164,2.041a.916.916,0,0,0,.916.916H21.905a.916.916,0,0,0,0-1.832H9.08A.916.916,0,0,0,8.164,2.041Z" transform="translate(-0.836 -1.125)" fill="#5b5b5b" fill-rule="evenodd"/>
  </g>
</svg>
